<?xml version="1.0" encoding="UTF-8" standalone="no"?>
<!DOCTYPE svg PUBLIC "-//W3C//DTD SVG 1.1//EN"
 "http://www.w3.org/Graphics/SVG/1.1/DTD/svg11.dtd">
<!-- Generated by graphviz version 2.40.1 (20161225.0304)
 -->
<!-- Title: A Pages: 1 -->
<svg width="1083pt" height="604pt"
 viewBox="0.00 0.00 1082.50 604.00" xmlns="http://www.w3.org/2000/svg" xmlns:xlink="http://www.w3.org/1999/xlink">
<g id="graph0" class="graph" transform="scale(1 1) rotate(0) translate(4 600)">
<title>A</title>
<polygon fill="#ffffff" stroke="transparent" points="-4,4 -4,-600 1078.5,-600 1078.5,4 -4,4"/>
<!-- App\\Entity\\Comment -->
<g id="node1" class="node">
<title>App\\Entity\\Comment</title>
<polygon fill="none" stroke="#000000" points="219.5,-569 219.5,-589 371.5,-589 371.5,-569 219.5,-569"/>
<text text-anchor="start" x="222.3999" y="-574.8" font-family="Times,serif" font-size="14.00" fill="#000000">symfony_demo_comment</text>
<polygon fill="none" stroke="#000000" points="219.5,-547 219.5,-567 371.5,-567 371.5,-547 219.5,-547"/>
<text text-anchor="start" x="274.8965" y="-552.8" font-family="Times,serif" font-size="14.00" fill="#000000">content</text>
<polygon fill="none" stroke="#000000" points="373.5,-547 373.5,-567 431.5,-567 431.5,-547 373.5,-547"/>
<text text-anchor="start" x="392.0034" y="-552.8" font-family="Times,serif" font-size="14.00" fill="#000000">text</text>
<polygon fill="none" stroke="#000000" points="433.5,-547 433.5,-567 847.5,-567 847.5,-547 433.5,-547"/>
<text text-anchor="start" x="436.1909" y="-552.8" font-family="Times,serif" font-size="14.00" fill="#000000">scale: 0, &#160;&#160;&#160;length: NULL, &#160;&#160;&#160;unique: false, &#160;&#160;&#160;nullable: false, &#160;&#160;&#160;precision: 0</text>
<polygon fill="none" stroke="#000000" points="219.5,-525 219.5,-545 371.5,-545 371.5,-525 219.5,-525"/>
<text text-anchor="start" x="259.7275" y="-530.8" font-family="Times,serif" font-size="14.00" fill="#000000">published_at</text>
<polygon fill="none" stroke="#000000" points="373.5,-525 373.5,-545 431.5,-545 431.5,-525 373.5,-525"/>
<text text-anchor="start" x="378.3999" y="-530.8" font-family="Times,serif" font-size="14.00" fill="#000000">datetime</text>
<polygon fill="none" stroke="#000000" points="433.5,-525 433.5,-545 847.5,-545 847.5,-525 433.5,-525"/>
<text text-anchor="start" x="436.1909" y="-530.8" font-family="Times,serif" font-size="14.00" fill="#000000">scale: 0, &#160;&#160;&#160;length: NULL, &#160;&#160;&#160;unique: false, &#160;&#160;&#160;nullable: false, &#160;&#160;&#160;precision: 0</text>
<polygon fill="none" stroke="#000000" points="219.5,-503 219.5,-523 371.5,-523 371.5,-503 219.5,-503"/>
<text text-anchor="start" x="274.8862" y="-508.8" font-family="Times,serif" font-size="14.00" fill="#000000">post_id</text>
<polygon fill="none" stroke="#000000" points="373.5,-503 373.5,-523 431.5,-523 431.5,-503 373.5,-503"/>
<text text-anchor="start" x="376.4722" y="-508.8" font-family="Times,serif" font-size="14.00" fill="#000000">reference</text>
<polygon fill="none" stroke="#000000" points="433.5,-503 433.5,-523 847.5,-523 847.5,-503 433.5,-503"/>
<text text-anchor="start" x="536.6929" y="-508.8" font-family="Times,serif" font-size="14.00" fill="#000000">references to symfony_demo_post:id</text>
<polygon fill="none" stroke="#000000" points="219.5,-481 219.5,-501 371.5,-501 371.5,-481 219.5,-481"/>
<text text-anchor="start" x="268.6724" y="-486.8" font-family="Times,serif" font-size="14.00" fill="#000000">author_id</text>
<polygon fill="none" stroke="#000000" points="373.5,-481 373.5,-501 431.5,-501 431.5,-481 373.5,-481"/>
<text text-anchor="start" x="376.4722" y="-486.8" font-family="Times,serif" font-size="14.00" fill="#000000">reference</text>
<polygon fill="none" stroke="#000000" points="433.5,-481 433.5,-501 847.5,-501 847.5,-481 433.5,-481"/>
<text text-anchor="start" x="536.6997" y="-486.8" font-family="Times,serif" font-size="14.00" fill="#000000">references to symfony_demo_user:id</text>
<polygon fill="none" stroke="#000000" points="216.5,-478 216.5,-592 850.5,-592 850.5,-478 216.5,-478"/>
</g>
<!-- App\\Entity\\Post -->
<g id="node3" class="node">
<title>App\\Entity\\Post</title>
<polygon fill="none" stroke="#000000" points="65.5,-411 65.5,-431 188.5,-431 188.5,-411 65.5,-411"/>
<text text-anchor="start" x="68.2793" y="-416.8" font-family="Times,serif" font-size="14.00" fill="#000000">symfony_demo_post</text>
<polygon fill="none" stroke="#000000" points="65.5,-389 65.5,-409 188.5,-409 188.5,-389 65.5,-389"/>
<text text-anchor="start" x="116.1138" y="-394.8" font-family="Times,serif" font-size="14.00" fill="#000000">title</text>
<polygon fill="none" stroke="#000000" points="190.5,-389 190.5,-409 248.5,-409 248.5,-389 190.5,-389"/>
<text text-anchor="start" x="203.5552" y="-394.8" font-family="Times,serif" font-size="14.00" fill="#000000">string</text>
<polygon fill="none" stroke="#000000" points="250.5,-389 250.5,-409 664.5,-409 664.5,-389 250.5,-389"/>
<text text-anchor="start" x="253.1909" y="-394.8" font-family="Times,serif" font-size="14.00" fill="#000000">scale: 0, &#160;&#160;&#160;length: NULL, &#160;&#160;&#160;unique: false, &#160;&#160;&#160;nullable: false, &#160;&#160;&#160;precision: 0</text>
<polygon fill="none" stroke="#000000" points="65.5,-367 65.5,-387 188.5,-387 188.5,-367 65.5,-367"/>
<text text-anchor="start" x="115.3311" y="-372.8" font-family="Times,serif" font-size="14.00" fill="#000000">slug</text>
<polygon fill="none" stroke="#000000" points="190.5,-367 190.5,-387 248.5,-387 248.5,-367 190.5,-367"/>
<text text-anchor="start" x="203.5552" y="-372.8" font-family="Times,serif" font-size="14.00" fill="#000000">string</text>
<polygon fill="none" stroke="#000000" points="250.5,-367 250.5,-387 664.5,-387 664.5,-367 250.5,-367"/>
<text text-anchor="start" x="253.1909" y="-372.8" font-family="Times,serif" font-size="14.00" fill="#000000">scale: 0, &#160;&#160;&#160;length: NULL, &#160;&#160;&#160;unique: false, &#160;&#160;&#160;nullable: false, &#160;&#160;&#160;precision: 0</text>
<polygon fill="none" stroke="#000000" points="65.5,-345 65.5,-365 188.5,-365 188.5,-345 65.5,-345"/>
<text text-anchor="start" x="100.9482" y="-350.8" font-family="Times,serif" font-size="14.00" fill="#000000">summary</text>
<polygon fill="none" stroke="#000000" points="190.5,-345 190.5,-365 248.5,-365 248.5,-345 190.5,-345"/>
<text text-anchor="start" x="203.5552" y="-350.8" font-family="Times,serif" font-size="14.00" fill="#000000">string</text>
<polygon fill="none" stroke="#000000" points="250.5,-345 250.5,-365 664.5,-365 664.5,-345 250.5,-345"/>
<text text-anchor="start" x="253.1909" y="-350.8" font-family="Times,serif" font-size="14.00" fill="#000000">scale: 0, &#160;&#160;&#160;length: NULL, &#160;&#160;&#160;unique: false, &#160;&#160;&#160;nullable: false, &#160;&#160;&#160;precision: 0</text>
<polygon fill="none" stroke="#000000" points="65.5,-323 65.5,-343 188.5,-343 188.5,-323 65.5,-323"/>
<text text-anchor="start" x="106.3965" y="-328.8" font-family="Times,serif" font-size="14.00" fill="#000000">content</text>
<polygon fill="none" stroke="#000000" points="190.5,-323 190.5,-343 248.5,-343 248.5,-323 190.5,-323"/>
<text text-anchor="start" x="209.0034" y="-328.8" font-family="Times,serif" font-size="14.00" fill="#000000">text</text>
<polygon fill="none" stroke="#000000" points="250.5,-323 250.5,-343 664.5,-343 664.5,-323 250.5,-323"/>
<text text-anchor="start" x="253.1909" y="-328.8" font-family="Times,serif" font-size="14.00" fill="#000000">scale: 0, &#160;&#160;&#160;length: NULL, &#160;&#160;&#160;unique: false, &#160;&#160;&#160;nullable: false, &#160;&#160;&#160;precision: 0</text>
<polygon fill="none" stroke="#000000" points="65.5,-301 65.5,-321 188.5,-321 188.5,-301 65.5,-301"/>
<text text-anchor="start" x="91.2275" y="-306.8" font-family="Times,serif" font-size="14.00" fill="#000000">published_at</text>
<polygon fill="none" stroke="#000000" points="190.5,-301 190.5,-321 248.5,-321 248.5,-301 190.5,-301"/>
<text text-anchor="start" x="195.3999" y="-306.8" font-family="Times,serif" font-size="14.00" fill="#000000">datetime</text>
<polygon fill="none" stroke="#000000" points="250.5,-301 250.5,-321 664.5,-321 664.5,-301 250.5,-301"/>
<text text-anchor="start" x="253.1909" y="-306.8" font-family="Times,serif" font-size="14.00" fill="#000000">scale: 0, &#160;&#160;&#160;length: NULL, &#160;&#160;&#160;unique: false, &#160;&#160;&#160;nullable: false, &#160;&#160;&#160;precision: 0</text>
<polygon fill="none" stroke="#000000" points="65.5,-279 65.5,-299 188.5,-299 188.5,-279 65.5,-279"/>
<text text-anchor="start" x="100.1724" y="-284.8" font-family="Times,serif" font-size="14.00" fill="#000000">author_id</text>
<polygon fill="none" stroke="#000000" points="190.5,-279 190.5,-299 248.5,-299 248.5,-279 190.5,-279"/>
<text text-anchor="start" x="193.4722" y="-284.8" font-family="Times,serif" font-size="14.00" fill="#000000">reference</text>
<polygon fill="none" stroke="#000000" points="250.5,-279 250.5,-299 664.5,-299 664.5,-279 250.5,-279"/>
<text text-anchor="start" x="353.6997" y="-284.8" font-family="Times,serif" font-size="14.00" fill="#000000">references to symfony_demo_user:id</text>
<polygon fill="none" stroke="#000000" points="62,-276 62,-434 667,-434 667,-276 62,-276"/>
</g>
<!-- App\\Entity\\Comment&#45;&gt;App\\Entity\\Post -->
<g id="edge1" class="edge">
<title>App\\Entity\\Comment&#45;&gt;App\\Entity\\Post</title>
<path fill="none" stroke="#000000" d="M476.0485,-473.809C467.4319,-464.6316 458.3958,-455.0074 449.3543,-445.3774"/>
<polygon fill="#000000" stroke="#000000" points="451.8425,-442.9141 442.446,-438.0194 446.7392,-447.7055 451.8425,-442.9141"/>
</g>
<!-- App\\Entity\\User -->
<g id="node5" class="node">
<title>App\\Entity\\User</title>
<polygon fill="none" stroke="#000000" points="485.5,-209 485.5,-229 608.5,-229 608.5,-209 485.5,-209"/>
<text text-anchor="start" x="488.2861" y="-214.8" font-family="Times,serif" font-size="14.00" fill="#000000">symfony_demo_user</text>
<polygon fill="none" stroke="#000000" points="485.5,-187 485.5,-207 608.5,-207 608.5,-187 485.5,-187"/>
<text text-anchor="start" x="518.6206" y="-192.8" font-family="Times,serif" font-size="14.00" fill="#000000">full_name</text>
<polygon fill="none" stroke="#000000" points="610.5,-187 610.5,-207 647.5,-207 647.5,-187 610.5,-187"/>
<text text-anchor="start" x="613.0552" y="-192.8" font-family="Times,serif" font-size="14.00" fill="#000000">string</text>
<polygon fill="none" stroke="#000000" points="649.5,-187 649.5,-207 1063.5,-207 1063.5,-187 649.5,-187"/>
<text text-anchor="start" x="652.1909" y="-192.8" font-family="Times,serif" font-size="14.00" fill="#000000">scale: 0, &#160;&#160;&#160;length: NULL, &#160;&#160;&#160;unique: false, &#160;&#160;&#160;nullable: false, &#160;&#160;&#160;precision: 0</text>
<polygon fill="none" stroke="#000000" points="485.5,-165 485.5,-185 608.5,-185 608.5,-165 485.5,-165"/>
<text text-anchor="start" x="520.1792" y="-170.8" font-family="Times,serif" font-size="14.00" fill="#000000">username</text>
<polygon fill="none" stroke="#000000" points="610.5,-165 610.5,-185 647.5,-185 647.5,-165 610.5,-165"/>
<text text-anchor="start" x="613.0552" y="-170.8" font-family="Times,serif" font-size="14.00" fill="#000000">string</text>
<polygon fill="none" stroke="#000000" points="649.5,-165 649.5,-185 1063.5,-185 1063.5,-165 649.5,-165"/>
<text text-anchor="start" x="654.522" y="-170.8" font-family="Times,serif" font-size="14.00" fill="#000000">scale: 0, &#160;&#160;&#160;length: NULL, &#160;&#160;&#160;unique: true, &#160;&#160;&#160;nullable: false, &#160;&#160;&#160;precision: 0</text>
<polygon fill="none" stroke="#000000" points="485.5,-143 485.5,-163 608.5,-163 608.5,-143 485.5,-143"/>
<text text-anchor="start" x="531.4517" y="-148.8" font-family="Times,serif" font-size="14.00" fill="#000000">email</text>
<polygon fill="none" stroke="#000000" points="610.5,-143 610.5,-163 647.5,-163 647.5,-143 610.5,-143"/>
<text text-anchor="start" x="613.0552" y="-148.8" font-family="Times,serif" font-size="14.00" fill="#000000">string</text>
<polygon fill="none" stroke="#000000" points="649.5,-143 649.5,-163 1063.5,-163 1063.5,-143 649.5,-143"/>
<text text-anchor="start" x="654.522" y="-148.8" font-family="Times,serif" font-size="14.00" fill="#000000">scale: 0, &#160;&#160;&#160;length: NULL, &#160;&#160;&#160;unique: true, &#160;&#160;&#160;nullable: false, &#160;&#160;&#160;precision: 0</text>
<polygon fill="none" stroke="#000000" points="485.5,-121 485.5,-141 608.5,-141 608.5,-121 485.5,-121"/>
<text text-anchor="start" x="520.5586" y="-126.8" font-family="Times,serif" font-size="14.00" fill="#000000">password</text>
<polygon fill="none" stroke="#000000" points="610.5,-121 610.5,-141 647.5,-141 647.5,-121 610.5,-121"/>
<text text-anchor="start" x="613.0552" y="-126.8" font-family="Times,serif" font-size="14.00" fill="#000000">string</text>
<polygon fill="none" stroke="#000000" points="649.5,-121 649.5,-141 1063.5,-141 1063.5,-121 649.5,-121"/>
<text text-anchor="start" x="652.1909" y="-126.8" font-family="Times,serif" font-size="14.00" fill="#000000">scale: 0, &#160;&#160;&#160;length: NULL, &#160;&#160;&#160;unique: false, &#160;&#160;&#160;nullable: false, &#160;&#160;&#160;precision: 0</text>
<polygon fill="none" stroke="#000000" points="485.5,-99 485.5,-119 608.5,-119 608.5,-99 485.5,-99"/>
<text text-anchor="start" x="533.3931" y="-104.8" font-family="Times,serif" font-size="14.00" fill="#000000">roles</text>
<polygon fill="none" stroke="#000000" points="610.5,-99 610.5,-119 647.5,-119 647.5,-99 610.5,-99"/>
<text text-anchor="start" x="617.3311" y="-104.8" font-family="Times,serif" font-size="14.00" fill="#000000">json</text>
<polygon fill="none" stroke="#000000" points="649.5,-99 649.5,-119 1063.5,-119 1063.5,-99 649.5,-99"/>
<text text-anchor="start" x="652.1909" y="-104.8" font-family="Times,serif" font-size="14.00" fill="#000000">scale: 0, &#160;&#160;&#160;length: NULL, &#160;&#160;&#160;unique: false, &#160;&#160;&#160;nullable: false, &#160;&#160;&#160;precision: 0</text>
<polygon fill="none" stroke="#000000" points="482.5,-96 482.5,-232 1066.5,-232 1066.5,-96 482.5,-96"/>
</g>
<!-- App\\Entity\\Comment&#45;&gt;App\\Entity\\User -->
<g id="edge2" class="edge">
<title>App\\Entity\\Comment&#45;&gt;App\\Entity\\User</title>
<path fill="none" stroke="#000000" d="M647.9449,-473.982C661.5312,-463.3155 674.2029,-451.3066 684.5,-438 727.8052,-382.0379 750.7254,-304.3599 762.5701,-245.9974"/>
<polygon fill="#000000" stroke="#000000" points="766.027,-246.5568 764.5164,-236.0702 759.1577,-245.21 766.027,-246.5568"/>
</g>
<!-- symfony_demo_post_tag -->
<g id="node2" class="node">
<title>symfony_demo_post_tag</title>
<polygon fill="none" stroke="#000000" points="144.5,-176 144.5,-196 291.5,-196 291.5,-176 144.5,-176"/>
<text text-anchor="start" x="147.2275" y="-181.8" font-family="Times,serif" font-size="14.00" fill="#000000">symfony_demo_post_tag</text>
<polygon fill="none" stroke="#000000" points="144.5,-154 144.5,-174 291.5,-174 291.5,-154 144.5,-154"/>
<text text-anchor="start" x="197.3862" y="-159.8" font-family="Times,serif" font-size="14.00" fill="#000000">post_id</text>
<polygon fill="none" stroke="#000000" points="293.5,-154 293.5,-174 351.5,-174 351.5,-154 293.5,-154"/>
<text text-anchor="start" x="296.4722" y="-159.8" font-family="Times,serif" font-size="14.00" fill="#000000">reference</text>
<polygon fill="none" stroke="#000000" points="353.5,-154 353.5,-174 445.5,-174 445.5,-154 353.5,-154"/>
<text text-anchor="start" x="356.3584" y="-159.8" font-family="Times,serif" font-size="14.00" fill="#000000">references to id</text>
<polygon fill="none" stroke="#000000" points="144.5,-132 144.5,-152 291.5,-152 291.5,-132 144.5,-132"/>
<text text-anchor="start" x="200.5034" y="-137.8" font-family="Times,serif" font-size="14.00" fill="#000000">tag_id</text>
<polygon fill="none" stroke="#000000" points="293.5,-132 293.5,-152 351.5,-152 351.5,-132 293.5,-132"/>
<text text-anchor="start" x="296.4722" y="-137.8" font-family="Times,serif" font-size="14.00" fill="#000000">reference</text>
<polygon fill="none" stroke="#000000" points="353.5,-132 353.5,-152 445.5,-152 445.5,-132 353.5,-132"/>
<text text-anchor="start" x="356.3584" y="-137.8" font-family="Times,serif" font-size="14.00" fill="#000000">references to id</text>
<polygon fill="none" stroke="#000000" points="141,-129 141,-199 448,-199 448,-129 141,-129"/>
</g>
<!-- symfony_demo_post_tag&#45;&gt;App\\Entity\\Post -->
<g id="edge7" class="edge">
<title>symfony_demo_post_tag&#45;&gt;App\\Entity\\Post</title>
<path fill="none" stroke="#000000" d="M314.3619,-203.008C321.5036,-220.2434 329.6188,-241.3113 337.2395,-262.2064"/>
<polygon fill="#000000" stroke="#000000" points="334.0092,-263.566 340.7008,-271.7802 340.5922,-261.186 334.0092,-263.566"/>
</g>
<!-- App\\Entity\\Tag -->
<g id="node4" class="node">
<title>App\\Entity\\Tag</title>
<polygon fill="none" stroke="#000000" points="11.5,-29 11.5,-49 128.5,-49 128.5,-29 11.5,-29"/>
<text text-anchor="start" x="14.3965" y="-34.8" font-family="Times,serif" font-size="14.00" fill="#000000">symfony_demo_tag</text>
<polygon fill="none" stroke="#000000" points="11.5,-7 11.5,-27 128.5,-27 128.5,-7 11.5,-7"/>
<text text-anchor="start" x="54.8413" y="-12.8" font-family="Times,serif" font-size="14.00" fill="#000000">name</text>
<polygon fill="none" stroke="#000000" points="130.5,-7 130.5,-27 167.5,-27 167.5,-7 130.5,-7"/>
<text text-anchor="start" x="133.0552" y="-12.8" font-family="Times,serif" font-size="14.00" fill="#000000">string</text>
<polygon fill="none" stroke="#000000" points="169.5,-7 169.5,-27 578.5,-27 578.5,-7 169.5,-7"/>
<text text-anchor="start" x="172.022" y="-12.8" font-family="Times,serif" font-size="14.00" fill="#000000">scale: 0, &#160;&#160;&#160;length: NULL, &#160;&#160;&#160;unique: true, &#160;&#160;&#160;nullable: false, &#160;&#160;&#160;precision: 0</text>
<polygon fill="none" stroke="#000000" points="8,-4 8,-52 581,-52 581,-4 8,-4"/>
</g>
<!-- symfony_demo_post_tag&#45;&gt;App\\Entity\\Tag -->
<g id="edge5" class="edge">
<title>symfony_demo_post_tag&#45;&gt;App\\Entity\\Tag</title>
<path fill="none" stroke="#000000" d="M288.314,-124.6632C287.5439,-106.2154 287.5624,-84.3225 288.3697,-66.0407"/>
<polygon fill="#000000" stroke="#000000" points="291.866,-66.2009 288.9175,-56.0247 284.8765,-65.8186 291.866,-66.2009"/>
</g>
<!-- App\\Entity\\Post&#45;&gt;symfony_demo_post_tag -->
<g id="edge6" class="edge">
<title>App\\Entity\\Post&#45;&gt;symfony_demo_post_tag</title>
<path fill="none" stroke="#000000" d="M327.3005,-271.7802C319.7372,-251.5929 312.3094,-230.6611 306.369,-212.6743"/>
<polygon fill="#000000" stroke="#000000" points="309.6476,-211.4383 303.2303,-203.008 302.9897,-213.6001 309.6476,-211.4383"/>
</g>
<!-- App\\Entity\\Post&#45;&gt;App\\Entity\\User -->
<g id="edge3" class="edge">
<title>App\\Entity\\Post&#45;&gt;App\\Entity\\User</title>
<path fill="none" stroke="#000000" d="M542.8412,-271.9191C565.3326,-261.4414 588.2596,-250.7608 610.5141,-240.3934"/>
<polygon fill="#000000" stroke="#000000" points="612.0848,-243.5229 619.6715,-236.1274 609.1288,-237.1777 612.0848,-243.5229"/>
</g>
<!-- App\\Entity\\Tag&#45;&gt;symfony_demo_post_tag -->
<g id="edge4" class="edge">
<title>App\\Entity\\Tag&#45;&gt;symfony_demo_post_tag</title>
<path fill="none" stroke="#000000" d="M300.0825,-56.0247C301.206,-72.905 301.5186,-94.8811 301.0204,-114.5976"/>
<polygon fill="#000000" stroke="#000000" points="297.5201,-114.5524 300.686,-124.6632 304.5162,-114.7849 297.5201,-114.5524"/>
</g>
</g>
</svg>
